<mxfile host="app.diagrams.net" modified="2020-10-06T12:25:43.783Z" agent="5.0 (Windows)" etag="z8bZAzOn17_XvPGOlnAg" version="13.7.7" type="github">
  <diagram id="MrBrek0n3seMQUjIlNSO" name="Page-1">
    <mxGraphModel dx="599" dy="1405" grid="1" gridSize="10" guides="1" tooltips="1" connect="1" arrows="1" fold="1" page="1" pageScale="1" pageWidth="850" pageHeight="1100" math="0" shadow="0">
      <root>
        <mxCell id="0" />
        <mxCell id="1" parent="0" />
        <mxCell id="Xpx-qnky7Seq95ZgQuDO-4" value="1;N" style="text;html=1;strokeColor=none;fillColor=none;align=center;verticalAlign=middle;whiteSpace=wrap;rounded=0;" parent="1" vertex="1">
          <mxGeometry x="320" y="180" width="160" height="20" as="geometry" />
        </mxCell>
        <mxCell id="6F4W0MYa69xs5jA9rygy-6" value="Chambre" style="text;html=1;strokeColor=none;fillColor=none;align=center;verticalAlign=middle;whiteSpace=wrap;rounded=0;" vertex="1" parent="1">
          <mxGeometry x="640" y="70" width="160" height="20" as="geometry" />
        </mxCell>
        <mxCell id="6F4W0MYa69xs5jA9rygy-9" value="1;N" style="text;html=1;strokeColor=none;fillColor=none;align=center;verticalAlign=middle;whiteSpace=wrap;rounded=0;" vertex="1" parent="1">
          <mxGeometry x="79" y="180" width="160" height="20" as="geometry" />
        </mxCell>
        <object label="" id="6F4W0MYa69xs5jA9rygy-11">
          <mxCell style="rounded=0;whiteSpace=wrap;html=1;" vertex="1" parent="1">
            <mxGeometry x="340" y="10" width="470" height="60" as="geometry" />
          </mxCell>
        </object>
        <mxCell id="6F4W0MYa69xs5jA9rygy-12" value="&lt;div&gt;Hotel&lt;/div&gt;" style="text;html=1;strokeColor=none;fillColor=none;align=center;verticalAlign=middle;whiteSpace=wrap;rounded=0;" vertex="1" parent="1">
          <mxGeometry x="490" y="30" width="160" height="20" as="geometry" />
        </mxCell>
        <mxCell id="6F4W0MYa69xs5jA9rygy-20" style="edgeStyle=orthogonalEdgeStyle;rounded=0;orthogonalLoop=1;jettySize=auto;html=1;exitX=0.5;exitY=1;exitDx=0;exitDy=0;entryX=0.5;entryY=1;entryDx=0;entryDy=0;startArrow=classic;startFill=1;" edge="1" parent="1" source="6F4W0MYa69xs5jA9rygy-13" target="6F4W0MYa69xs5jA9rygy-15">
          <mxGeometry relative="1" as="geometry">
            <Array as="points">
              <mxPoint x="140" y="220" />
              <mxPoint x="430" y="220" />
            </Array>
          </mxGeometry>
        </mxCell>
        <mxCell id="6F4W0MYa69xs5jA9rygy-13" value="&lt;p style=&quot;margin: 0px ; margin-top: 6px ; text-align: center&quot;&gt;CLIENT&lt;/p&gt;&lt;hr&gt;&lt;p style=&quot;margin: 0px ; margin-left: 8px&quot;&gt;+ Nom&lt;br&gt;+ Prénom&lt;/p&gt;&lt;p style=&quot;margin: 0px ; margin-left: 8px&quot;&gt;+ Adresse&lt;/p&gt;&lt;p style=&quot;margin: 0px ; margin-left: 8px&quot;&gt;+ID Client&lt;br&gt;&lt;/p&gt;" style="align=left;overflow=fill;html=1;dropTarget=0;" vertex="1" parent="1">
          <mxGeometry x="50" y="70" width="180" height="110" as="geometry" />
        </mxCell>
        <mxCell id="6F4W0MYa69xs5jA9rygy-14" value="" style="shape=component;jettyWidth=8;jettyHeight=4;" vertex="1" parent="6F4W0MYa69xs5jA9rygy-13">
          <mxGeometry x="1" width="20" height="20" relative="1" as="geometry">
            <mxPoint x="-24" y="4" as="offset" />
          </mxGeometry>
        </mxCell>
        <mxCell id="6F4W0MYa69xs5jA9rygy-21" style="edgeStyle=orthogonalEdgeStyle;orthogonalLoop=1;jettySize=auto;html=1;exitX=0.75;exitY=1;exitDx=0;exitDy=0;entryX=0.594;entryY=1.009;entryDx=0;entryDy=0;entryPerimeter=0;rounded=0;startArrow=classic;startFill=1;" edge="1" parent="1" source="6F4W0MYa69xs5jA9rygy-15" target="6F4W0MYa69xs5jA9rygy-17">
          <mxGeometry relative="1" as="geometry" />
        </mxCell>
        <mxCell id="6F4W0MYa69xs5jA9rygy-15" value="&lt;p style=&quot;margin: 0px ; margin-top: 6px ; text-align: center&quot;&gt;Reservations&lt;/p&gt;&lt;hr&gt;&lt;p style=&quot;margin: 0px ; margin-left: 8px&quot;&gt;+ Date&lt;br&gt;+ Quantité&lt;/p&gt;&lt;p style=&quot;margin: 0px ; margin-left: 8px&quot;&gt;&lt;br&gt;&lt;/p&gt;&lt;p style=&quot;margin: 0px ; margin-left: 8px&quot;&gt;+ ID Réservation &lt;br&gt;&lt;/p&gt;" style="align=left;overflow=fill;html=1;dropTarget=0;" vertex="1" parent="1">
          <mxGeometry x="340" y="70" width="180" height="110" as="geometry" />
        </mxCell>
        <mxCell id="6F4W0MYa69xs5jA9rygy-16" value="" style="shape=component;jettyWidth=8;jettyHeight=4;" vertex="1" parent="6F4W0MYa69xs5jA9rygy-15">
          <mxGeometry x="1" width="20" height="20" relative="1" as="geometry">
            <mxPoint x="-24" y="4" as="offset" />
          </mxGeometry>
        </mxCell>
        <mxCell id="6F4W0MYa69xs5jA9rygy-24" style="edgeStyle=orthogonalEdgeStyle;rounded=0;orthogonalLoop=1;jettySize=auto;html=1;exitX=1;exitY=0.75;exitDx=0;exitDy=0;entryX=0.25;entryY=0;entryDx=0;entryDy=0;startArrow=classic;startFill=1;fillColor=#f8cecc;strokeColor=#b85450;" edge="1" parent="1" source="6F4W0MYa69xs5jA9rygy-17" target="6F4W0MYa69xs5jA9rygy-13">
          <mxGeometry relative="1" as="geometry">
            <Array as="points">
              <mxPoint x="840" y="153" />
              <mxPoint x="840" />
              <mxPoint x="95" />
            </Array>
          </mxGeometry>
        </mxCell>
        <mxCell id="6F4W0MYa69xs5jA9rygy-17" value="&lt;p style=&quot;margin: 0px ; margin-top: 6px ; text-align: center&quot;&gt;Chambre&lt;/p&gt;&lt;hr&gt;&lt;p style=&quot;margin: 0px ; margin-left: 8px&quot;&gt;+ Disponible / Non-disponible&lt;br&gt;+ Quantité&lt;/p&gt;&lt;p style=&quot;margin: 0px ; margin-left: 8px&quot;&gt;&lt;br&gt;&lt;/p&gt;&lt;p style=&quot;margin: 0px ; margin-left: 8px&quot;&gt;+ ID chambre&lt;br&gt;&lt;/p&gt;" style="align=left;overflow=fill;html=1;dropTarget=0;" vertex="1" parent="1">
          <mxGeometry x="630" y="70" width="180" height="110" as="geometry" />
        </mxCell>
        <mxCell id="6F4W0MYa69xs5jA9rygy-18" value="" style="shape=component;jettyWidth=8;jettyHeight=4;" vertex="1" parent="6F4W0MYa69xs5jA9rygy-17">
          <mxGeometry x="1" width="20" height="20" relative="1" as="geometry">
            <mxPoint x="-24" y="4" as="offset" />
          </mxGeometry>
        </mxCell>
        <mxCell id="6F4W0MYa69xs5jA9rygy-22" value="0;N" style="text;html=1;strokeColor=none;fillColor=none;align=center;verticalAlign=middle;whiteSpace=wrap;rounded=0;" vertex="1" parent="1">
          <mxGeometry x="420" y="180" width="160" height="20" as="geometry" />
        </mxCell>
        <mxCell id="6F4W0MYa69xs5jA9rygy-23" value="0;N" style="text;html=1;strokeColor=none;fillColor=none;align=center;verticalAlign=middle;whiteSpace=wrap;rounded=0;" vertex="1" parent="1">
          <mxGeometry x="630" y="180" width="160" height="20" as="geometry" />
        </mxCell>
        <mxCell id="6F4W0MYa69xs5jA9rygy-25" value="&lt;font color=&quot;#FF0000&quot;&gt;0;N&lt;/font&gt;" style="text;html=1;strokeColor=none;fillColor=none;align=center;verticalAlign=middle;whiteSpace=wrap;rounded=0;" vertex="1" parent="1">
          <mxGeometry x="400" y="-20" width="160" height="20" as="geometry" />
        </mxCell>
        <mxCell id="6F4W0MYa69xs5jA9rygy-35" style="edgeStyle=orthogonalEdgeStyle;rounded=0;orthogonalLoop=1;jettySize=auto;html=1;exitX=0.5;exitY=0;exitDx=0;exitDy=0;entryX=0.553;entryY=0.01;entryDx=0;entryDy=0;entryPerimeter=0;startArrow=classic;startFill=1;" edge="1" parent="1" source="6F4W0MYa69xs5jA9rygy-27" target="6F4W0MYa69xs5jA9rygy-31">
          <mxGeometry relative="1" as="geometry">
            <Array as="points">
              <mxPoint x="140" y="290" />
              <mxPoint x="459" y="290" />
            </Array>
          </mxGeometry>
        </mxCell>
        <mxCell id="6F4W0MYa69xs5jA9rygy-36" style="edgeStyle=orthogonalEdgeStyle;rounded=0;orthogonalLoop=1;jettySize=auto;html=1;exitX=0.5;exitY=1;exitDx=0;exitDy=0;entryX=0.569;entryY=1.006;entryDx=0;entryDy=0;entryPerimeter=0;startArrow=classic;startFill=1;" edge="1" parent="1" source="6F4W0MYa69xs5jA9rygy-27" target="6F4W0MYa69xs5jA9rygy-31">
          <mxGeometry relative="1" as="geometry">
            <Array as="points">
              <mxPoint x="140" y="460" />
              <mxPoint x="462" y="460" />
            </Array>
          </mxGeometry>
        </mxCell>
        <mxCell id="6F4W0MYa69xs5jA9rygy-27" value="&lt;p style=&quot;margin: 0px ; margin-top: 6px ; text-align: center&quot;&gt;Citoyen&lt;/p&gt;&lt;hr&gt;&lt;p style=&quot;margin: 0px ; margin-left: 8px&quot;&gt;+ autres ...&lt;br&gt;&lt;/p&gt;" style="align=left;overflow=fill;html=1;dropTarget=0;" vertex="1" parent="1">
          <mxGeometry x="50" y="330" width="180" height="90" as="geometry" />
        </mxCell>
        <mxCell id="6F4W0MYa69xs5jA9rygy-28" value="" style="shape=component;jettyWidth=8;jettyHeight=4;" vertex="1" parent="6F4W0MYa69xs5jA9rygy-27">
          <mxGeometry x="1" width="20" height="20" relative="1" as="geometry">
            <mxPoint x="-24" y="4" as="offset" />
          </mxGeometry>
        </mxCell>
        <mxCell id="6F4W0MYa69xs5jA9rygy-30" style="edgeStyle=orthogonalEdgeStyle;rounded=0;orthogonalLoop=1;jettySize=auto;html=1;exitX=1;exitY=0.5;exitDx=0;exitDy=0;startArrow=classic;startFill=1;" edge="1" parent="1" source="6F4W0MYa69xs5jA9rygy-27" target="6F4W0MYa69xs5jA9rygy-31">
          <mxGeometry relative="1" as="geometry">
            <mxPoint x="350" y="410" as="targetPoint" />
            <mxPoint x="122.99999999999989" y="370" as="sourcePoint" />
          </mxGeometry>
        </mxCell>
        <mxCell id="6F4W0MYa69xs5jA9rygy-31" value="&lt;p style=&quot;margin: 0px ; margin-top: 6px ; text-align: center&quot;&gt;État Civile&lt;br&gt;&lt;/p&gt;&lt;hr&gt;&lt;p style=&quot;margin: 0px ; margin-left: 8px&quot;&gt;+ Date de Naissance&lt;br&gt;+ Lieu de naissance&lt;/p&gt;&lt;p style=&quot;margin: 0px ; margin-left: 8px&quot;&gt;+ Parents&lt;/p&gt;&lt;p style=&quot;margin: 0px ; margin-left: 8px&quot;&gt;+ &lt;br&gt;&lt;/p&gt;" style="align=left;overflow=fill;html=1;dropTarget=0;" vertex="1" parent="1">
          <mxGeometry x="360" y="330" width="180" height="90" as="geometry" />
        </mxCell>
        <mxCell id="6F4W0MYa69xs5jA9rygy-32" value="" style="shape=component;jettyWidth=8;jettyHeight=4;" vertex="1" parent="6F4W0MYa69xs5jA9rygy-31">
          <mxGeometry x="1" width="20" height="20" relative="1" as="geometry">
            <mxPoint x="-24" y="4" as="offset" />
          </mxGeometry>
        </mxCell>
        <mxCell id="6F4W0MYa69xs5jA9rygy-33" value="1;1" style="text;html=1;strokeColor=none;fillColor=none;align=center;verticalAlign=middle;whiteSpace=wrap;rounded=0;" vertex="1" parent="1">
          <mxGeometry x="210" y="350" width="70" height="20" as="geometry" />
        </mxCell>
        <mxCell id="6F4W0MYa69xs5jA9rygy-34" value="1;1" style="text;html=1;strokeColor=none;fillColor=none;align=center;verticalAlign=middle;whiteSpace=wrap;rounded=0;" vertex="1" parent="1">
          <mxGeometry x="310" y="350" width="70" height="20" as="geometry" />
        </mxCell>
      </root>
    </mxGraphModel>
  </diagram>
</mxfile>
